#!OML:ASF E:\Mandelcareful walks\Project 1\Capture day 1\Session 1\Subject1.ASF
:FULLY-SPECIFIED
:DEGREES
321
root -8.38268 2.9311 1.66931 176.37 33.5131 -140.624
lowerback 59.845 -0.0520719 3.80055
upperback 22.6186 14.008 10.6536
thorax 2.31077 10.347 4.89465
lowerneck -25.6382 -2.4037 -1.47505
upperneck 37.3585 -0.0464688 -2.03662
head 18.3981 -0.0876616 -0.558957
rclavicle 7.49418e-014 1.39646e-014
rhumerus 57.905 11.6781 -18.322
rradius 64.242
rwrist -2.00205
rhand 1.36954 -22.9954
rfingers 7.12502
rthumb 26.9015 -51.101
lclavicle 7.49418e-014 1.39646e-014
lhumerus -20.573 3.81815 89.0143
lradius 59.0559
lwrist 45.031
lhand -63.1442 -80.5774
lfingers 7.12502
lthumb -35.1397 -54.0541
rfemur -99.0474 -57.3256 24.4155
rtibia 111.248
rfoot 19.9215 20.383
rtoes -12.0443
lfemur -84.338 6.48196 -38.1187
ltibia 57.836
lfoot 16.3978 12.4077
ltoes 19.0247
322
root -8.36415 2.93242 1.67559 175.689 33.3052 -141.079
lowerback 60.365 -0.218863 3.72548
upperback 22.6301 13.964 10.6915
thorax 2.29708 10.3544 4.99456
lowerneck -25.7754 -2.57039 -1.92495
upperneck 37.3467 -0.0319 -2.13969
head 18.4345 -0.164822 -0.526707
rclavicle 4.03036e-014 7.79236e-014
rhumerus 58.0512 11.4505 -18.1305
rradius 64.1533
rwrist -1.89479
rhand 1.3045 -22.5471
rfingers 7.12502
rthumb 26.8393 -50.6622
lclavicle 4.03036e-014 7.79236e-014
lhumerus -20.0849 3.21672 89.0195
lradius 58.3573
lwrist 45.7507
lhand -63.162 -82.0177
lfingers 7.12502
lthumb -35.1566 -55.4984
rfemur -98.0864 -57.6995 23.3383
rtibia 111.038
rfoot 20.0786 20.3076
rtoes -12.6567
lfemur -83.8143 6.27976 -38.2929
ltibia 57.8204
lfoot 16.5197 12.4747
ltoes 19.7978
323
root -8.33573 2.93157 1.67929 175.035 33.1511 -141.944
lowerback 60.5027 -0.253471 3.39968
upperback 22.6845 13.8066 10.613
thorax 2.3453 10.2761 5.1199
lowerneck -25.9236 -2.6911 -2.28806
upperneck 37.3304 0.0289199 -2.28342
head 18.471 -0.217965 -0.51872
rclavicle 1.50579e-014 -1.26104e-014
rhumerus 58.2892 11.2952 -18.0154
rradius 64.0561
rwrist -1.9754
rhand 0.933589 -22.3453
rfingers 7.12502
rthumb 26.4843 -50.5145
lclavicle 1.50579e-014 -1.26104e-014
lhumerus -19.5596 2.66534 88.879
lradius 57.7259
lwrist 46.5201
lhand -63.2353 -81.7049
lfingers 7.12502
lthumb -35.2261 -55.2019
rfemur -97.7799 -57.9623 22.3209
rtibia 110.895
rfoot 20.3257 20.2293
rtoes -13.3291
lfemur -83.5922 6.03854 -38.8135
ltibia 57.8754
lfoot 16.6554 12.5747
ltoes 19.9361
324
root -8.31199 2.92581 1.69785 176.022 33.296 -139.722
lowerback 60.49 -0.836061 4.79093
upperback 22.879 14.1166 10.8626
thorax 2.69785 10.6067 4.76878
lowerneck -25.9649 -2.82777 -2.72653
upperneck 37.3137 0.10366 -2.40659
head 18.4815 -0.269974 -0.482871
rclavicle -8.73907e-014 -3.07744e-014
rhumerus 58.3321 11.182 -17.9796
rradius 64.1633
rwrist -2.0022
rhand 0.903279 -22.8232
rfingers 7.12502
rthumb 26.4553 -50.9968
lclavicle -8.73907e-014 -3.07744e-014
lhumerus -19.0467 2.21452 88.7756
lradius 57.0324
lwrist 47.0067
lhand -63.2858 -81.5465
lfingers 7.12502
lthumb -35.274 -55.0549
rfemur -96.5183 -57.2937 23.5751
rtibia 110.723
rfoot 19.8859 19.4495
rtoes -14.545
lfemur -83.7422 6.02438 -36.5108
ltibia 58.0617
lfoot 16.96 12.7008
ltoes 19.7133
325
root -8.29116 2.92848 1.69996 176.53 33.0981 -139.272
lowerback 60.1679 -1.13352 5.48949
upperback 22.766 14.1098 10.9035
thorax 2.6741 10.6532 4.52096
lowerneck -25.7092 -2.95448 -2.87557
upperneck 37.235 0.0855881 -2.6168
head 18.3758 -0.321942 -0.554381
rclavicle -4.46272e-014 -5.74488e-014
rhumerus 58.0649 11.1518 -18.3918
rradius 64.1675
rwrist -1.64249
rhand 1.3568 -22.8693
rfingers 7.12502
rthumb 26.8893 -50.9768
lclavicle -4.46272e-014 -5.74488e-014
lhumerus -18.621 1.71533 88.6022
lradius 56.3165
lwrist 47.3102
lhand -63.0962 -81.532
lfingers 7.12502
lthumb -35.0942 -54.998
rfemur -96.9363 -57.33 24.2953
rtibia 110.785
rfoot 19.9604 19.1017
rtoes -15.1088
lfemur -84.062 5.60053 -35.9777
ltibia 58.1411
lfoot 17.187 12.6441
ltoes 19.3886
326
root -8.22768 2.92112 1.65864 177.128 32.468 -141.671
lowerback 57.5378 -0.749962 4.97342
upperback 22.7905 13.5138 10.8058
thorax 2.75096 10.2008 4.80144
lowerneck -25.3486 -3.13463 -2.7608
upperneck 37.107 -0.0986917 -2.94675
head 18.2105 -0.416584 -0.762256
rclavicle 7.54388e-014 4.72611e-014
rhumerus 57.6342 11.0351 -18.8085
rradius 63.9772
rwrist -1.31012
rhand 1.60235 -22.5139
rfingers 7.12502
rthumb 27.1242 -50.5849
lclavicle 7.54388e-014 4.72611e-014
lhumerus -17.8976 1.26177 88.5585
lradius 55.4223
lwrist 47.3337
lhand -62.8824 -81.194
lfingers 7.12502
lthumb -34.8914 -54.6126
rfemur -102.034 -58.2542 25.5194
rtibia 111.467
rfoot 20.8729 19.4439
rtoes -14.6694
lfemur -85.9527 4.21482 -38.236
ltibia 58.3374
lfoot 17.4647 12.6523
ltoes 18.776
327
root -8.17195 2.91702 1.62948 177.516 31.9865 -143.579
lowerback 55.3898 -0.354107 4.54814
upperback 22.9148 13.2378 10.8322
thorax 2.94442 9.95482 5.10871
lowerneck -25.1474 -3.46314 -2.88726
upperneck 37.0124 -0.410655 -3.21666
head 18.1077 -0.589951 -0.929718
rclavicle -9.70069e-014 -5.35725e-014
rhumerus 57.0888 10.7733 -18.7424
rradius 63.7522
rwrist -1.30844
rhand 1.47549 -22.3174
rfingers 7.12502
rthumb 27.0029 -50.4074
lclavicle -9.70069e-014 -5.35725e-014
lhumerus -16.8544 0.903402 88.774
lradius 54.3798
lwrist 47.1177
lhand -62.5172 -80.4506
lfingers 7.12502
lthumb -34.5448 -53.7894
rfemur -106.03 -58.995 26.5781
rtibia 112.086
rfoot 21.3734 19.7455
rtoes -14.8835
lfemur -87.2821 3.13102 -39.9574
ltibia 58.4919
lfoot 17.5938 12.669
ltoes 18.2566
328
root -8.05373 2.88084 1.59184 179.229 31.8572 -145.258
lowerback 51.6523 0.159652 4.14203
upperback 23.0605 12.6492 10.5482
thorax 3.47298 9.49231 5.26348
lowerneck -25.3238 -3.55604 -3.6579
upperneck 37.2453 -0.257927 -2.88348
head 18.3019 -0.587042 -0.610813
rclavicle -7.15625e-014 -2.3556e-014
rhumerus 57.0862 10.8951 -19.1318
rradius 63.4516
rwrist -1.22634
rhand 0.948835 -22.5261
rfingers 7.12502
rthumb 26.4989 -50.6931
lclavicle -7.15625e-014 -2.3556e-014
lhumerus -16.2431 0.997396 88.2786
lradius 53.7951
lwrist 47.1408
lhand -62.0761 -79.5373
lfingers 7.12502
lthumb -34.126 -52.7816
rfemur -113.251 -58.8323 30.0532
rtibia 113.169
rfoot 22.0059 20.1103
rtoes -16.4141
lfemur -90.3899 1.67391 -41.236
ltibia 58.8894
lfoot 18.1787 12.6776
ltoes 17.9079
329
root -7.98585 2.87384 1.57118 180.064 31.8767 -146.14
lowerback 49.801 0.494745 4.14761
upperback 22.9457 12.5361 10.3501
thorax 3.60896 9.35541 5.11479
lowerneck -25.323 -3.68908 -4.47517
upperneck 37.6124 -0.178061 -2.37185
head 18.528 -0.585002 -0.21011
rclavicle -1.11717e-013 1.09928e-013
rhumerus 56.8725 11.0687 -19.9368
rradius 62.5225
rwrist -0.690511
rhand 0.407688 -22.7261
rfingers 7.12502
rthumb 25.9808 -50.9702
lclavicle -1.11717e-013 1.09928e-013
lhumerus -14.4829 0.948758 88.1679
lradius 51.9531
lwrist 46.7847
lhand -62.0954 -79.7368
lfingers 7.12502
lthumb -34.1443 -52.9852
rfemur -116.513 -58.5667 31.5271
rtibia 113.717
rfoot 22.3861 20.1366
rtoes -16.4845
lfemur -91.9806 0.860682 -41.5896
ltibia 59.2925
lfoot 18.3491 12.8191
ltoes 17.7107
330
root -7.92739 2.87288 1.55209 180.555 31.8746 -146.446
lowerback 48.5323 0.618939 4.43062
upperback 22.9379 12.5293 10.2609
thorax 3.83333 9.3479 4.94378
lowerneck -25.2316 -3.76337 -4.95442
upperneck 37.7347 -0.047351 -2.25633
head 18.5854 -0.575406 -0.0387947
rclavicle 1.04561e-013 -5.96354e-015
rhumerus 57.0267 11.1328 -20.988
rradius 60.6864
rwrist 0.0488554
rhand 0.301731 -22.155
rfingers 7.12502
rthumb 25.8793 -50.414
lclavicle 1.04561e-013 -5.96354e-015
lhumerus -13.9098 0.472115 87.856
lradius 51.2727
lwrist 46.8413
lhand -62.2321 -80.0978
lfingers 7.12502
lthumb -34.2741 -53.3753
rfemur -118.188 -58.5059 32.3729
rtibia 114.184
rfoot 22.4642 20.2222
rtoes -16.43
lfemur -92.9805 0.323454 -41.3515
ltibia 59.7526
lfoot 18.3805 13.1816
ltoes 17.2952
331
root -7.8923 2.8842 1.53871 180.733 31.9893 -146.148
lowerback 48.179 0.603265 5.03865
upperback 22.8077 12.6905 10.2072
thorax 3.83607 9.47756 4.5645
lowerneck -25.036 -3.81931 -4.59536
upperneck 37.8333 0.0910898 -2.98282
head 18.5941 -0.557073 -0.407042
rclavicle 4.96962e-015 8.34896e-015
rhumerus 57.035 11.2999 -21.6045
rradius 59.0045
rwrist 0.448262
rhand 0.352502 -21.8994
rfingers 7.12502
rthumb 25.928 -50.1512
lclavicle 4.96962e-015 8.34896e-015
lhumerus -13.7344 0.164127 87.6251
lradius 50.7282
lwrist 46.56
lhand -62.1774 -78.8806
lfingers 7.12502
lthumb -34.2222 -52.1464
rfemur -118.09 -58.4218 32.5648
rtibia 114.44
rfoot 22.2307 20.1913
rtoes -16.4807
lfemur -93.2702 0.311455 -40.7433
ltibia 60.066
lfoot 18.1844 13.5592
ltoes 16.807
332
root -7.88798 2.90253 1.53276 181.297 31.8745 -145.409
lowerback 47.5606 0.42158 5.94779
upperback 22.6608 12.7365 10.3006
thorax 3.88165 9.56141 4.25774
lowerneck -25.2779 -3.92796 -5.54384
upperneck 38.7021 0.521659 -2.64257
head 19.193 -0.45901 0.0167695
rclavicle -4.41302e-014 -2.52457e-014
rhumerus 57.1092 11.6767 -21.4437
rradius 57.9445
rwrist 0.619156
rhand 0.752876 -22.3375
rfingers 7.12502
rthumb 26.3113 -50.5327
lclavicle -4.41302e-014 -2.52457e-014
lhumerus -13.3845 0.0556937 87.6071
lradius 50.0161
lwrist 46.2631
lhand -62.1868 -78.6432
lfingers 7.12502
lthumb -34.2311 -51.9111
rfemur -117.745 -58.3405 33.0654
rtibia 114.476
rfoot 21.8211 19.8987
rtoes -16.7715
lfemur -93.4015 0.0709195 -39.9453
ltibia 60.1608
lfoot 18.3536 13.2274
ltoes 16.5141
333
root -7.8915 2.91999 1.53197 181.308 31.4127 -145.044
lowerback 46.2003 0.123354 6.46065
upperback 23.3523 12.3998 10.6411
thorax 4.05641 9.50424 4.20558
lowerneck -25.0006 -3.93397 -5.30041
upperneck 38.8741 0.766629 -3.25205
head 19.2317 -0.394674 -0.25603
rclavicle -1.44318e-013 -6.97734e-014
rhumerus 57.503 12.1627 -20.9848
rradius 57.0638
rwrist 0.859805
rhand 1.65272 -22.4265
rfingers 7.12502
rthumb 27.1724 -50.49
lclavicle -1.44318e-013 -6.97734e-014
lhumerus -13.0131 0.00894488 87.515
lradius 49.2332
lwrist 46.1711
lhand -62.163 -80.5498
lfingers 7.12502
lthumb -34.2085 -53.8126
rfemur -117.101 -58.903 32.9362
rtibia 114.396
rfoot 21.4607 19.804
rtoes -17.5636
lfemur -92.8393 -0.427404 -39.4297
ltibia 60.0439
lfoot 18.3099 12.9219
ltoes 15.8644
334
root -7.86073 2.93627 1.52395 180.662 31.089 -145.305
lowerback 46.2351 -0.123037 6.68298
upperback 23.096 12.1468 10.4145
thorax 3.85309 9.40007 3.91183
lowerneck -24.7591 -3.8703 -5.15136
upperneck 39.1255 0.965279 -3.40965
head 19.322 -0.298393 -0.30677
rclavicle 2.14687e-014 -1.78906e-014
rhumerus 57.6984 12.6743 -20.7235
rradius 56.3066
rwrist 1.17194
rhand 2.46044 -22.8306
rfingers 7.12502
rthumb 27.9449 -50.7709
lclavicle 2.14687e-014 -1.78906e-014
lhumerus -12.7659 -0.171537 87.1032
lradius 48.3677
lwrist 46.1763
lhand -62.067 -81.966
lfingers 7.12502
lthumb -34.1174 -55.2084
rfemur -116.377 -59.7208 31.9879
rtibia 114.552
rfoot 21.0365 20.0816
rtoes -18.0959
lfemur -92.1068 -0.81719 -39.3877
ltibia 60.0089
lfoot 18.1277 13.1633
ltoes 14.5954
